<svg width="29" height="30" viewBox="0 0 29 30" fill="none" xmlns="http://www.w3.org/2000/svg">
<path d="M13.8789 0.0634766C13.5508 0.163086 13.1348 0.491211 12.9531 0.790039C12.8125 1.01855 12.7715 1.15918 12.7539 1.47559C12.7422 1.69824 12.7539 1.95605 12.7891 2.0498C12.8477 2.22559 12.8477 2.22559 12.6367 2.26074C11.1836 2.50098 10.2812 2.82324 9.3789 3.42676C7.65039 4.58105 6.82422 6.29199 6.82422 8.71191C6.82422 10.458 6.50195 12.8545 6.05664 14.3896C5.61719 15.9131 5.26562 16.833 4.65625 18.0811C3.76562 19.8916 2.88086 21.1221 1.39258 22.6104L0.384766 23.624L0.443359 23.958C0.566406 24.626 1.05273 25.2295 1.71484 25.54L2.04883 25.6982L6.03906 25.7158L10.0293 25.7334L10.0645 26.1553C10.2109 27.8721 11.5 29.3896 13.2168 29.8701C13.7324 30.0107 14.916 30.0107 15.4316 29.8701C17.1484 29.3896 18.4375 27.8721 18.584 26.1553L18.6191 25.7334L22.6094 25.7158L26.5996 25.6982L26.9336 25.54C27.5957 25.2295 28.082 24.626 28.2051 23.958L28.2637 23.624L27.2559 22.6104C25.75 21.1045 24.8769 19.8857 23.9629 18.0225C22.5859 15.2041 21.8242 11.8936 21.8242 8.71191C21.8242 6.29199 20.998 4.58105 19.2695 3.42676C18.3613 2.82324 17.4648 2.50098 16.0117 2.26074C15.8066 2.23145 15.7949 2.21973 15.8477 2.0791C15.8828 1.99707 15.9062 1.76855 15.9062 1.56348C15.9062 0.731445 15.2676 0.0751953 14.4121 0.0283203C14.2187 0.0166016 13.9785 0.0341797 13.8789 0.0634766ZM11.8281 25.5283C11.8809 25.5752 11.9219 25.7158 11.9219 25.8389C11.9219 26.3838 12.2734 27.0928 12.7539 27.5146C13.1055 27.8252 13.4805 28.0068 13.9258 28.0771C14.5117 28.1709 14.541 28.1826 14.5703 28.2939C14.5879 28.3525 14.5762 28.458 14.5527 28.5283C14.5117 28.6338 14.459 28.6572 14.2539 28.6572C13.8965 28.6572 13.3164 28.5107 12.959 28.3291C12.5723 28.1299 11.9219 27.4854 11.7344 27.1045C11.4004 26.4541 11.2832 25.6221 11.5 25.499C11.6406 25.4111 11.7227 25.4229 11.8281 25.5283Z" fill="black"/>
</svg>
