<svg width="30" height="30" viewBox="0 0 30 30" fill="none" xmlns="http://www.w3.org/2000/svg">
<path d="M14.145 2.02867C14.0133 2.05935 13.7936 2.15138 13.657 2.23728C13.5057 2.33545 11.119 4.78966 7.7415 8.33599C1.77723 14.5881 1.94318 14.3979 2.02127 14.8028C2.04079 14.8826 2.30435 15.3244 2.61672 15.7845C3.08527 16.484 3.20729 16.6312 3.34395 16.668C3.43668 16.6864 3.5587 16.6864 3.61239 16.6619C3.66608 16.6435 6.13573 14.085 9.09346 10.9865C12.0561 7.88196 14.4867 5.34185 14.5013 5.34185C14.516 5.34185 16.9466 7.88196 19.9092 10.9865C22.8669 14.085 25.3366 16.6435 25.3903 16.6619C25.444 16.6864 25.566 16.6864 25.6587 16.668C25.7954 16.6312 25.9174 16.484 26.3859 15.7845C26.6983 15.3244 26.9619 14.8826 26.9814 14.8028C27.0546 14.4224 26.996 14.3488 25.1902 12.4591L23.4575 10.6429L23.4331 6.51987L23.4087 2.3968L23.272 2.23114L23.1402 2.05935L21.5638 2.04094C20.5388 2.02867 19.9287 2.04094 19.8165 2.08389C19.4846 2.2066 19.4846 2.21887 19.4699 4.4522L19.4553 6.45852L17.4639 4.37244C15.3311 2.13297 15.2676 2.07775 14.6722 2.01026C14.5111 1.99186 14.2719 1.99799 14.145 2.02867Z" fill="black"/>
<path d="M10.0206 11.6735L5.56934 16.2874V21.0731C5.56934 24.3679 5.58886 25.9447 5.62302 26.1103C5.69624 26.4478 6.02813 26.8405 6.31609 26.9264C6.47227 26.9816 7.4289 27 9.51786 27H12.5V23.2573V19.5147H14.5011H16.5022V23.2573V27H19.4843C21.4708 27 22.5348 26.9755 22.6715 26.9325C22.9448 26.8466 23.2279 26.5521 23.3401 26.2392C23.428 25.9999 23.4328 25.7238 23.4328 21.1344V16.2874L18.9963 11.6919C16.5608 9.16404 14.545 7.09023 14.5206 7.07796C14.4962 7.06569 12.4707 9.13336 10.0206 11.6735Z" fill="black"/>
</svg>
