<svg width="150" height="200" viewBox="0 0 150 200" fill="none" xmlns="http://www.w3.org/2000/svg">
<path d="M14.4736 3.33256L0 6.62205L1.91023 9.25365C19.9104 33.6971 28.1391 89.6185 20.4982 135.823C17.1186 156.724 11.9022 172.615 3.89392 186.38C1.68981 190.226 0 193.465 0.14694 193.566C0.293881 193.668 7.27355 195.287 15.7226 197.109C27.9187 199.791 31.2248 200.348 31.6657 199.791C32.033 199.437 33.9432 196.957 35.9269 194.326C69.2089 149.892 74.7927 79.9018 49.2985 27.4724C43.2739 15.0229 32.8412 -0.0581463 30.2697 0.0430688C29.6085 0.0430688 22.4819 1.5613 14.4736 3.33256Z" fill="black"/>
<path d="M116.718 2.12551C106.579 14.1701 97.3953 31.5791 92.0319 49.0893C79.2481 90.6382 83.5829 140.993 103.052 177.025C106.212 182.946 116.057 197.673 118.261 199.799C118.775 200.355 121.934 199.849 134.277 197.116C142.726 195.295 149.779 193.675 149.926 193.523C150.147 193.422 149.486 192.106 148.604 190.639C128.326 159.11 121.053 102.075 130.971 53.1379C134.571 35.4253 140.963 19.0284 147.869 9.51422L150 6.62959L135.159 3.28949C127.004 1.46761 119.951 -5.11024e-06 119.436 -5.11024e-06C118.922 -5.11024e-06 117.746 0.961539 116.718 2.12551Z" fill="black"/>
</svg>
