<svg width="36" height="30" viewBox="0 0 36 30" fill="none" xmlns="http://www.w3.org/2000/svg">
<path d="M13.4592 0.0587234C10.8528 0.269762 7.96978 1.25461 5.73668 2.67912C5.06607 3.10705 3.66952 4.29121 3.16482 4.85985C2.20383 5.94435 1.22901 7.50369 0.751975 8.72888C-0.782845 12.7034 0.053701 16.9242 3.06112 20.3946C3.65569 21.0746 5.01076 22.2353 5.79891 22.7395C7.51348 23.8357 9.7604 24.7209 11.717 25.0844C15.6231 25.7995 19.6814 25.2075 22.917 23.4488L23.4701 23.1498L27.3071 26.3916C31.4207 29.8679 31.3862 29.8445 32.2504 29.9676C33.1007 30.0907 33.9027 29.862 34.5664 29.3051C35.2232 28.7541 35.4998 28.0389 35.3407 27.312C35.1817 26.5909 35.2163 26.6203 31.1373 23.1498L27.314 19.8963L27.6597 19.4391C29.1531 17.4518 29.9343 15.148 29.9343 12.7152C29.9343 10.7865 29.4987 9.10406 28.5308 7.35127C27.7289 5.87987 26.8577 4.81881 25.5511 3.71086C22.3846 1.03184 17.953 -0.304731 13.4592 0.0587234ZM16.4389 4.71329C18.0844 4.92433 19.4256 5.41089 20.7738 6.30194C22.5851 7.49196 23.8434 9.16855 24.3135 11.0151C24.4933 11.7245 24.4933 13.6473 24.3135 14.3566C23.9264 15.8749 23.1244 17.1352 21.7901 18.296C20.3866 19.5212 18.8172 20.2715 16.9367 20.6115C16.1002 20.7639 13.8325 20.7639 12.996 20.6115C10.8182 20.2129 8.84089 19.146 7.43743 17.6101C6.08928 16.1387 5.46014 14.5618 5.46014 12.6741C5.46705 10.4524 6.38656 8.57647 8.25324 6.99368C9.74658 5.72745 11.4473 4.98295 13.4454 4.71329C14.2128 4.60777 15.6301 4.60777 16.4389 4.71329Z" fill="black"/>
</svg>
